<svg id="Layer_1" data-name="Layer 1" xmlns="http://www.w3.org/2000/svg" viewBox="0 0 32 32"><defs><style>.cls-1{fill:none;stroke:#6839cf;stroke-linecap:round;stroke-linejoin:round;stroke-width:2px;}</style></defs><title>S-13</title><path class="cls-1" d="M6,2a8.67,8.67,0,0,0-4.84-.4s0,4.15,1.8,6.13"/><path class="cls-1" d="M10,3A3.28,3.28,0,0,0,5.28,3c-2,2-3.87,8.67.4,10.64"/><path class="cls-1" d="M15,4a3.76,3.76,0,0,0-4.23-1c-3.4,1.7-8.21,13-2,16.76"/><path class="cls-1" d="M21.55,7.15c5.28.25,9.53,1.53,8.42,8.17-.4,2.43-2,5.68,0,9.68"/><path class="cls-1" d="M17.62,26.3C24.62,26.3,27,28,30,31c0,0,4.09-4.7-4.14-8.82C21.43,20,21.74,16.42,21.74,9.83c0-4.11-5.49-8.23-8.23-4.11C5.28,16.69,8,26.3,17.62,26.3Z"/></svg>