<svg id="Layer_1" data-name="Layer 1" xmlns="http://www.w3.org/2000/svg" viewBox="0 0 32 32"><defs><style>.cls-1{fill:none;stroke:#6839cf;stroke-linecap:round;stroke-linejoin:round;stroke-width:2px;}</style></defs><title>S-17</title><path class="cls-1" d="M14,5V3.09A2.05,2.05,0,0,1,16,1h0a2.05,2.05,0,0,1,2,2.09V5"/><path class="cls-1" d="M21,26a5,5,0,0,1-10,0"/><path class="cls-1" d="M23.67,15V13.17a7.67,7.67,0,0,0-7.74-7.59h0a7.66,7.66,0,0,0-7.73,7.59v1.92a10.71,10.71,0,0,1-3,7.45L3.26,24.48A.9.9,0,0,0,3.92,26H28.08a.9.9,0,0,0,.65-1.54L26.92,22.7A10.72,10.72,0,0,1,23.67,15Z"/><path class="cls-1" d="M4.22,8.73C3,11.16,2.85,14.67,2.85,16.83"/><path class="cls-1" d="M27.64,8.73c1.21,2.43,1.36,5.94,1.36,8.1"/></svg>