<svg id="Layer_1" data-name="Layer 1" xmlns="http://www.w3.org/2000/svg" viewBox="0 0 32 32"><defs><style>.cls-1{fill:none;stroke:#6839cf;stroke-linecap:round;stroke-linejoin:round;stroke-width:2px;}</style></defs><title>S-19</title><path class="cls-1" d="M2.07,28.51l8,2.33a1.28,1.28,0,0,0,.7,0l10.41-2.55a1.28,1.28,0,0,1,.7,0l7.46,2.13a1.36,1.36,0,0,0,1.73-1.31V4.71a1.35,1.35,0,0,0-1-1.31L21.89,1.05a1.38,1.38,0,0,0-.7,0L11,3.59a1.42,1.42,0,0,1-.71,0L2.83,1.45A1.36,1.36,0,0,0,1.09,2.76V27.2A1.37,1.37,0,0,0,2.07,28.51Z"/><path class="cls-1" d="M24,9.13H13.84a3.41,3.41,0,0,0-3.41,3.41h0A3.41,3.41,0,0,0,13.84,16h4.84a3.41,3.41,0,0,1,3.41,3.41h0a3.41,3.41,0,0,1-3.41,3.41H12"/><circle class="cls-1" cx="9.59" cy="22.67" r="2.18"/><polyline class="cls-1" points="21.9 11.86 24.63 9.13 21.9 6.41"/></svg>