<?xml version="1.0" encoding="utf-8"?>
<!-- Generator: Adobe Illustrator 22.0.1, SVG Export Plug-In . SVG Version: 6.00 Build 0)  -->
<svg version="1.1" id="Layer_2" xmlns="http://www.w3.org/2000/svg" xmlns:xlink="http://www.w3.org/1999/xlink" x="0px" y="0px"
	 viewBox="0 0 32 32" style="enable-background:new 0 0 32 32;" xml:space="preserve">
<style type="text/css">
	.st0{fill:none;stroke:#6839CF;stroke-width:2;stroke-linecap:round;stroke-linejoin:round;stroke-miterlimit:10;}
	.st1{fill:none;stroke:#6839CF;stroke-width:2;stroke-linejoin:round;stroke-miterlimit:10;}
	.st2{fill:#FFFFFF;stroke:#6839CF;stroke-width:2;stroke-linecap:round;stroke-linejoin:round;stroke-miterlimit:10;}
</style>
<g>
	<path class="st0" d="M17.2,3l2.9,9h9.4c1.3,0,1.8,1.6,0.8,2.4l-7.6,5.5l2.9,9c0.4,1.2-1,2.2-2,1.5l-6.9-5c-0.5-0.3-1.1-0.3-1.5,0
		l-6.9,5c-1,0.7-2.4-0.3-2-1.5l2.9-9l-7.6-5.5c-1-0.7-0.5-2.4,0.8-2.4h9.4l2.9-9C15.2,1.8,16.8,1.8,17.2,3z"/>
	<line class="st0" x1="15" y1="15" x2="17" y2="15"/>
	<line class="st0" x1="13" y1="19" x2="19" y2="19"/>
</g>
</svg>
