<svg id="Layer_1" data-name="Layer 1" xmlns="http://www.w3.org/2000/svg" viewBox="0 0 32 32"><defs><style>.cls-1{fill:none;stroke:#6839cf;stroke-linecap:round;stroke-linejoin:round;stroke-width:2px;}</style></defs><title>S-21</title><path class="cls-1" d="M7.14,9.1a5.37,5.37,0,0,1,1.53,4.15,5.49,5.49,0,0,1,4.15,1.53C14,15.87,14.11,17.47,14,19a6.23,6.23,0,0,1,4.5,1.46A5,5,0,0,1,20,24.61a5.5,5.5,0,0,1,4.15,1.53,13.41,13.41,0,0,1,2.07,3.71A16.21,16.21,0,0,0,3.32,6.92,13.43,13.43,0,0,1,7.14,9.1Z"/><path class="cls-1" d="M13.91,19.15,6.16,26.9a3,3,0,0,1-4.26,0h0a3,3,0,0,1,0-4.26h0"/><line class="cls-1" x1="28.65" y1="4.52" x2="26.25" y2="6.92"/></svg>