<svg id="Layer_1" data-name="Layer 1" xmlns="http://www.w3.org/2000/svg" viewBox="0 0 32 32"><defs><style>.cls-1{fill:none;stroke:#6839cf;stroke-linecap:round;stroke-linejoin:round;stroke-width:2px;}</style></defs><title>S-7</title><path class="cls-1" d="M5,18H3a2.16,2.16,0,0,1-2-2.29V4.29A2.16,2.16,0,0,1,3,2H29a2.16,2.16,0,0,1,2,2.29V15.71A2.16,2.16,0,0,1,29,18H27"/><rect class="cls-1" x="5" y="10" width="22" height="8"/><line class="cls-1" x1="25" y1="6" x2="27" y2="6"/><path class="cls-1" d="M9,22a6.84,6.84,0,0,1-7,7"/><path class="cls-1" d="M23,22a6.84,6.84,0,0,0,7,7"/><line class="cls-1" x1="16" y1="22" x2="16" y2="30"/><line class="cls-1" x1="6" y1="14" x2="27" y2="14"/></svg>