<svg id="Layer_1" data-name="Layer 1" xmlns="http://www.w3.org/2000/svg" viewBox="0 0 32 32"><defs><style>.cls-1{fill:none;stroke:#6839cf;stroke-linecap:round;stroke-linejoin:round;stroke-width:2px;}</style></defs><title>S-8</title><path class="cls-1" d="M3,26H29a2,2,0,0,1,2,2v3a0,0,0,0,1,0,0H1a0,0,0,0,1,0,0V28A2,2,0,0,1,3,26Z"/><path class="cls-1" d="M23,1H10A6,6,0,0,0,4,7V26H14V9H29V7A6,6,0,0,0,23,1Z"/><path class="cls-1" d="M22.48,26h0a3.92,3.92,0,0,1-3.9-3.49L18,17h9l-.61,5.51A3.93,3.93,0,0,1,22.48,26Z"/><line class="cls-1" x1="25" y1="9" x2="25" y2="14"/><polyline class="cls-1" points="29 14 20 14 20 9"/><path class="cls-1" d="M27,18c5-1,4.71,4.61.09,4.58"/></svg>