<svg id="Layer_1" data-name="Layer 1" xmlns="http://www.w3.org/2000/svg" viewBox="0 0 32 32"><defs><style>.cls-1{fill:none;stroke:#6839cf;stroke-linecap:round;stroke-linejoin:round;stroke-width:2px;}</style></defs><title>S-10</title><path class="cls-1" d="M21.45,18.39a8.5,8.5,0,0,1,.75-.72,9.47,9.47,0,1,0-12.34,0,8.5,8.5,0,0,1,.75.72h0a3.11,3.11,0,0,1,.77,1.81L12,28c.07.82.75,1.45,1.58,1h.11L14,30.13a1.57,1.57,0,0,0,1.41.87h1.2A1.57,1.57,0,0,0,18,30.13L18.4,29h.11c.83.42,1.51-.21,1.58-1l.59-7.77a3.11,3.11,0,0,1,.77-1.81Z"/><path class="cls-1" d="M12,22h8"/><path class="cls-1" d="M12,25h8"/><path class="cls-1" d="M12,28h8"/></svg>