<?xml version="1.0" encoding="utf-8"?>
<!-- Generator: Adobe Illustrator 23.0.6, SVG Export Plug-In . SVG Version: 6.00 Build 0)  -->
<svg version="1.1" id="Layer_1" xmlns="http://www.w3.org/2000/svg" xmlns:xlink="http://www.w3.org/1999/xlink" x="0px" y="0px"
	 viewBox="0 0 32 32" style="enable-background:new 0 0 32 32;" xml:space="preserve">
<style type="text/css">
	.st0{fill:none;stroke:#6839CF;stroke-width:2;stroke-linecap:round;stroke-linejoin:round;}
</style>
<title>Kinopoisk</title>
<path class="st0" d="M23.5,9c1.5,6.6,2.3,13.3,2.3,20v1.1c0,0.5-0.4,0.9-0.9,0.9H4.3c-0.5,0-0.9-0.4-0.9-0.9V29
	c0-6.8,0.8-13.5,2.3-20l0.4-1.7C7,3.8,10.4,1,14,1h1c3.6,0,7.3,2.8,8.1,6.3L23.5,9z"/>
<path class="st0" d="M6.9,5.6H25c3.3,0,6,2.7,6,6l0,0c0,2.8-1,5.5-2.8,7.6L25.8,22"/>
<path class="st0" d="M5.2,8.2H0.9l3,11.6"/>
<path class="st0" d="M25.8,26.2H4.3"/>
</svg>
