<?xml version="1.0" encoding="utf-8"?>
<!-- Generator: Adobe Illustrator 23.0.6, SVG Export Plug-In . SVG Version: 6.00 Build 0)  -->
<svg version="1.1" id="Layer_1" xmlns="http://www.w3.org/2000/svg" xmlns:xlink="http://www.w3.org/1999/xlink" x="0px" y="0px"
	 viewBox="0 0 32 32" style="enable-background:new 0 0 32 32;" xml:space="preserve">
<style type="text/css">
	.st0{fill:none;stroke:#6839CF;stroke-width:2;stroke-linecap:round;stroke-linejoin:round;}
	.st1{fill:#6839CF;stroke:#6839CF;stroke-width:2;stroke-linecap:round;stroke-linejoin:round;}
</style>
<title>Tv_channel</title>
<path class="st0" d="M15,23c-4.7,0.1-9.4,0.4-14,1V2c10,1.3,20,1.3,30,0v22c-1.3-0.2-2.7-0.3-4-0.5"/>
<polygon class="st0" points="6,8 11,13 6,18 "/>
<path class="st0" d="M24.7,7h-7.4c-0.7,0-1.4,0.5-1.5,1.3c-1.1,7.1-1.1,14.4,0,21.5c0.1,0.7,0.7,1.3,1.5,1.3h7.4
	c0.7,0,1.4-0.5,1.5-1.2c1.1-7.1,1.1-14.4,0-21.5C26.1,7.5,25.5,7,24.7,7z"/>
<circle class="st0" cx="21" cy="13" r="3"/>
<circle class="st1" cx="19" cy="20.5" r="0.5"/>
<circle class="st1" cx="23" cy="20.5" r="0.5"/>
</svg>
