<svg id="Layer_1" data-name="Layer 1" xmlns="http://www.w3.org/2000/svg" viewBox="0 0 32 32"><defs><style>.cls-1{fill:none;stroke:#6839cf;stroke-linecap:round;stroke-linejoin:round;stroke-width:2px;}</style></defs><title>Kinopoisk</title><g id="film"><path id="path-4" class="cls-1" d="M11.21,29.15a14,14,0,1,1,17.94-8.36A14,14,0,0,1,11.21,29.15Zm.46-16.59A3.5,3.5,0,1,0,9.58,8.08,3.49,3.49,0,0,0,11.67,12.56Zm9.86,3.59a3.5,3.5,0,1,0-2.09-4.48A3.5,3.5,0,0,0,21.53,16.15ZM17.94,26a3.5,3.5,0,1,0-2.09-4.49A3.49,3.49,0,0,0,17.94,26Zm-9.86-3.6A3.5,3.5,0,1,0,6,17.94,3.48,3.48,0,0,0,8.08,22.42Zm7.58-5.48a1,1,0,1,0-.6-1.28A1,1,0,0,0,15.66,16.94Z"/><path id="path-4-2" data-name="path-4" class="cls-1" d="M11.21,29.15a14,14,0,1,1,17.94-8.36A14,14,0,0,1,11.21,29.15Zm.46-16.59A3.5,3.5,0,1,0,9.58,8.08,3.49,3.49,0,0,0,11.67,12.56Zm9.86,3.59a3.5,3.5,0,1,0-2.09-4.48A3.5,3.5,0,0,0,21.53,16.15ZM17.94,26a3.5,3.5,0,1,0-2.09-4.49A3.49,3.49,0,0,0,17.94,26Zm-9.86-3.6A3.5,3.5,0,1,0,6,17.94,3.48,3.48,0,0,0,8.08,22.42Z"/></g></svg>