<?xml version="1.0" encoding="utf-8"?>
<!-- Generator: Adobe Illustrator 22.0.1, SVG Export Plug-In . SVG Version: 6.00 Build 0)  -->
<svg version="1.1" id="Layer_2" xmlns="http://www.w3.org/2000/svg" xmlns:xlink="http://www.w3.org/1999/xlink" x="0px" y="0px"
	 viewBox="0 0 32 32" style="enable-background:new 0 0 32 32;" xml:space="preserve">
<style type="text/css">
	.st0{fill:none;stroke:#6839CF;stroke-width:2;stroke-linecap:round;stroke-linejoin:round;stroke-miterlimit:10;}
	.st1{fill:none;stroke:#6839CF;stroke-width:2;stroke-linejoin:round;stroke-miterlimit:10;}
	.st2{fill:#FFFFFF;stroke:#6839CF;stroke-width:2;stroke-linecap:round;stroke-linejoin:round;stroke-miterlimit:10;}
</style>
<g>
	<circle class="st0" cx="16" cy="16" r="14"/>
	<path class="st0" d="M13,22h-2c-0.6,0-1-0.4-1-1V11c0-0.6,0.4-1,1-1h2c0.6,0,1,0.4,1,1v10C14,21.6,13.6,22,13,22z"/>
	<path class="st0" d="M21,22h-2c-0.6,0-1-0.4-1-1V11c0-0.6,0.4-1,1-1h2c0.6,0,1,0.4,1,1v10C22,21.6,21.6,22,21,22z"/>
</g>
</svg>
