<?xml version="1.0" encoding="utf-8"?>
<!-- Generator: Adobe Illustrator 23.0.6, SVG Export Plug-In . SVG Version: 6.00 Build 0)  -->
<svg version="1.1" id="Layer_1" xmlns="http://www.w3.org/2000/svg" xmlns:xlink="http://www.w3.org/1999/xlink" x="0px" y="0px"
	 viewBox="0 0 32 32" style="enable-background:new 0 0 32 32;" xml:space="preserve">
<style type="text/css">
	.st0{fill:none;stroke:#6839CF;stroke-width:2;stroke-linecap:round;stroke-linejoin:round;}
</style>
<title>Efir</title>
<path class="st0" d="M22.3,2.6c-2.4,0.2-14.9,2-14.9,2c-2.7,0.2-4.8,2.3-5,5c-0.3,2.3-1.2,11.3-1.2,11.3c-0.1,3.2,2.4,5.9,5.6,6.1
	c0.1,0,0.1,0,0.2,0l18-0.1c3.6,0,6.5-2.6,5.9-6.1l-2.1-13C28.3,5,25.5,2.3,22.3,2.6z"/>
<path class="st0" d="M19.7,5.7c0,0-10.4,1.3-11.6,1.5C6.4,7.4,5.1,8.8,5,10.5c-0.2,1.9-0.8,8.8-0.8,8.8C4,21.5,5.3,23,7.4,23H21
	c2.6,0,4.9-1.6,4.5-5.1L24.1,9c-0.2-2.1-2.1-3.6-4.2-3.3C19.8,5.7,19.7,5.7,19.7,5.7z"/>
<path class="st0" d="M24.4,11.7c-0.2-1.9-1.7-2.5-3.3-2.3l-9.6,1.3C10,10.8,9.2,11.5,9,13.4c-0.1,0.5-0.4,6.4-0.4,6.4
	c0,1.8,1.4,3.2,3.2,3.2"/>
<path class="st0" d="M25,14.8c-0.1-1.3-1.3-2.3-2.6-2.2c0,0,0,0-0.1,0c-1.5,0.1-6,0.6-7,0.8c-1,0.1-1.8,0.9-1.8,1.9
	c-0.1,1.2-0.2,3.1-0.2,5.1c0.1,1.4,1.2,2.6,2.7,2.6"/>
</svg>
